<svg width="44" height="44" viewBox="0 0 44 44" fill="none" xmlns="http://www.w3.org/2000/svg">
<path d="M35.2 17.6C35.2 24.8902 26.95 35.75 22 40.7C17.05 35.75 8.8 24.8902 8.8 17.6C8.8 10.3099 14.7098 4.40002 22 4.40002C29.2902 4.40002 35.2 10.3099 35.2 17.6Z" stroke="#F85757" stroke-width="2"/>
<path d="M21.5 17.0554L20.5583 17.3918C20.7004 17.7897 21.0774 18.0554 21.5 18.0554C21.9226 18.0554 22.2996 17.7898 22.4417 17.3918L21.5 17.0554ZM15.7662 19.7537L16.6724 19.3308L15.7662 19.7537ZM21.5 24.813L21.0143 25.6871L21.5 25.9569L21.9856 25.6871L21.5 24.813ZM27.2338 19.7537L28.14 20.1766L27.2338 19.7537ZM14.86 20.1766C15.7824 22.1533 17.9316 23.9745 21.0143 25.6871L21.9856 23.9388C18.9972 22.2786 17.3186 20.7156 16.6724 19.3308L14.86 20.1766ZM21.9856 25.6871C25.0639 23.977 27.1865 22.2197 28.14 20.1766L26.3276 19.3308C25.6527 20.7772 24.0072 22.2761 21.0143 23.9388L21.9856 25.6871ZM22.4418 16.7191C21.9403 15.3149 21.0504 14.3516 19.974 13.8629C18.91 13.3799 17.7353 13.3949 16.7307 13.8135C15.7226 14.2336 14.8763 15.0646 14.4831 16.2088C14.0883 17.3581 14.1823 18.7244 14.86 20.1766L16.6724 19.3308C16.1696 18.2534 16.1792 17.4273 16.3746 16.8586C16.5718 16.2848 16.9903 15.872 17.4999 15.6597C18.0131 15.4458 18.6091 15.4398 19.1473 15.6841C19.6729 15.9227 20.2165 16.4349 20.5583 17.3918L22.4418 16.7191ZM28.14 20.1766C28.8177 18.7244 28.9117 17.3581 28.5169 16.2088C28.1238 15.0645 27.2774 14.2336 26.2693 13.8135C25.2647 13.3949 24.09 13.3799 23.026 13.8629C21.9496 14.3516 21.0598 15.3149 20.5583 16.7191L22.4417 17.3918C22.7835 16.4349 23.3271 15.9227 23.8527 15.6841C24.3909 15.4398 24.9869 15.4458 25.5001 15.6597C26.0098 15.872 26.4282 16.2848 26.6254 16.8586C26.8208 17.4273 26.8304 18.2534 26.3276 19.3308L28.14 20.1766Z" fill="#F85757"/>
</svg>
